<svg id="laughing_man" xmlns="http://www.w3.org/2000/svg" xmlns:xlink="http://www.w3.org/1999/xlink" width="817.656" height="743.562" viewBox="0 0 817.656 743.562">
  <metadata><?xpacket begin="﻿" id="W5M0MpCehiHzreSzNTczkc9d"?>
<x:xmpmeta xmlns:x="adobe:ns:meta/" x:xmptk="Adobe XMP Core 5.6-c138 79.159824, 2016/09/14-01:09:01        ">
   <rdf:RDF xmlns:rdf="http://www.w3.org/1999/02/22-rdf-syntax-ns#">
      <rdf:Description rdf:about=""/>
   </rdf:RDF>
</x:xmpmeta>
                                                                                                    
                                                                                                    
                                                                                                    
                                                                                                    
                                                                                                    
                                                                                                    
                                                                                                    
                                                                                                    
                                                                                                    
                                                                                                    
                                                                                                    
                                                                                                    
                                                                                                    
                                                                                                    
                                                                                                    
                                                                                                    
                                                                                                    
                                                                                                    
                                                                                                    
                                                                                                    
                           
<?xpacket end="w"?></metadata>
<defs>
    <style>
      .cls-1 {
        fill: #002984;
        fill-rule: evenodd;
      }

      .cls-2, .cls-3 {
        font-size: 62px;
        text-anchor: middle;
      }

      .cls-3 {
        fill: #002980;
        font-family: Impact;
      }
    </style>
    <path id="text-path" d="M0,264C0,118.2,118.2,0,264,0S528,118.2,528,264,409.8,528,264,528Z"/>
  </defs>
  <path id="base" class="cls-1" d="M373.3,0.842c179.3,0,329.5,127.609,364.934,296.1,44.585,0,80.332,34.832,80.332,75.557,0,50.031-40.387,77.6-81.063,78.033C701.639,618.456,552.2,744.4,373.3,744.4,167.636,744.4.909,577.949,0.909,372.621S167.636,0.842,373.3.842Zm-221.554,296.1H592.512c-17.364-56.057-90.006-158.076-219.2-158.076S167.745,240.517,151.749,296.943ZM22.59,372.5c0-193.03,157.756-350.187,350.563-350.187,193.884,0,320.615,153.844,341.529,274.63h-82.02C611.443,218.87,531.7,113.22,394.744,103.734c-3.632-1.243-7.483-12.042-8.3-12.042s-20.8.062-22.5,0.062-6.312,10.986-9.733,11.595c-139.509,8.144-232.359,113.522-249.836,236.7H737.273c23.164,0,39.883,10.65,39.883,32.45,0,24.454-17.668,35.577-39.883,35.577H601.727c-14.115,84.882-99.068,197.341-228.417,197.341-128.82,0-234.295-103.905-234.295-232.918,0-7.183.831-19.363,0.831-19.363h-36.9s-1.039,13.45-1.039,19.363c0,149.814,122.341,269.912,271.4,269.912,150.006,0,237.513-111.489,257.913-192.313H713.6c-19.506,118.856-146.4,272.047-340.287,272.047C180.5,722.146,22.59,563.7,22.59,372.5Zm540.987,35.577H183.71c13.9,76.949,81.524,158.269,189.6,158.269S550.942,484.185,563.577,408.077ZM505.018,450.1H242.545c6.049,10.62,43.14,75.659,130.765,75.659S500.638,459.677,505.018,450.1ZM322.959,395.914c-0.839-21.232-15.441-48.135-49.423-47.457C236.9,350.113,227.122,381.945,226,399.686c6.437-6.7,17.03-20.829,47.534-23.064C300.962,374.667,316.8,390.886,322.959,395.914Zm197.062,0c0-20.673-18.777-47.457-48.793-47.457-30.177,0-48.164,26.389-48.164,51.229,8.668-11.859,25.05-21.577,48.164-23.821C489.045,374.744,511.835,385.818,520.021,395.914Z" transform="translate(-0.906 -0.844)"/>
  <text class="cls-2" transform="translate(-0.906 -0.844) scale(1.023 1.021)"><textPath startOffset="50%" xlink:href="#text-path"><tspan class="cls-3">I thought what I’d do was, I’d pretend I was one of those deaf-mutes</tspan></textPath></text>
</svg>
