<?xml version="1.0" encoding="utf-8"?>
<!-- Generator: Adobe Illustrator 19.2.1, SVG Export Plug-In . SVG Version: 6.00 Build 0)  -->
<svg version="1.1" id="レイヤー_1" xmlns="http://www.w3.org/2000/svg" xmlns:xlink="http://www.w3.org/1999/xlink" x="0px"
	 y="0px" viewBox="0 0 56.6 57.3" style="enable-background:new 0 0 56.6 57.3;" xml:space="preserve">
<g>
	<path d="M20.2,48.7c-1.3,4.7-3.9,9-9.1,8.7c-3.3-0.2-7.1-2.2-9.4-4.7c-2.9-3.1-1.8-7.4,0.6-10.9c2.4-3.5,5.9-4.8,9.8-3.6
		c3.5,1.1,6.1,0.7,8.4-2.2c-11.2,0.7-13.4-9.7-20-15.2c1.1-1,1-2.5,1.8-2.9c5.7-3.4,10.2-5.5,15.9-8.9c0.8-0.5,3.1-3.3,3.8-4
		c3.5-3.3,4-2.8,8-1.2c0.7,2.2,0.4,3.6,0,5.5c-1,4.3,0.2,6.3,4.8,7.4c0-2,0-3.6,0-5.2C34.9,5.5,40.1-0.1,45.9,0
		c1.7,0,4.1,1.5,4.8,2.9c0.8,1.8,0.2,4.3,0.2,7.1c4,0.4,4.2,3.3,2.1,7.1c-0.4,0.7-0.6,1.7-0.3,2.4c2.3,6-0.9,8.1-6.3,8.6
		c-1.1,4-0.8,6.4,4,7.3c4.3,0.8,6.5,5.6,6,10.6c-0.5,4.6-3.7,8-8.1,8.6c-4.8,0.6-9-1.7-10.7-6c-0.4-0.9-0.6-1.9-1-2.9
		c-3.6-0.1-7.2-1.7-10.3,2.1C25.7,48.9,22.8,48.4,20.2,48.7z M46.6,39.1c1.4,1.4,2.8,2.8,4.3,4.3c-0.6,1-1.6,2.5-3,4.7
		c-2.2-2.8-4.2-5.2-6.2-7.7c-2.9,3.3-2.4,6.7,0.3,8.8c2,1.5,5.7,2.5,7.6,1.7c2.1-0.9,4-4.3,4.1-6.8C54,40.8,51.7,38.2,46.6,39.1z
		 M14.4,42.1c-5.3-2.3-9.2-1-10.8,3.2c-1.4,3.6,0.6,7.8,4.4,9c3.9,1.3,7.4-0.7,8.5-5.2c-2,0.2-3.9,0.6-5.8,0.6
		c-1.2,0-2.3-0.4-3.5-0.7c0.6-1.1,0.9-2.5,1.7-3.3C10.4,44.4,12.3,43.4,14.4,42.1z M38.6,25.7c-3.2,0.2-6,0.4-9,0.6
		c1.3,2.4,2.2,4,3.1,5.8C36.2,31.6,39.8,31.2,38.6,25.7z M33,39.7c1.3,1.6,2.3,2.8,3.4,4c1.6-2.9,3-5.4,4.4-7.9
		c-0.3-0.3-0.5-0.6-0.8-0.9C37.8,36.4,35.6,37.9,33,39.7z"/>
</g>
</svg>
